<?xml version="1.0" standalone="no"?><!DOCTYPE svg PUBLIC "-//W3C//DTD SVG 1.1//EN" "http://www.w3.org/Graphics/SVG/1.1/DTD/svg11.dtd"><svg class="icon" height="512" viewBox="0 0 1024 1024" version="1.1" xmlns="http://www.w3.org/2000/svg"><path d="M852.783988 947.955046 168.235121 947.955046c-56.661488 0-102.690824-46.920636-102.690824-104.776322L65.544297 317.41628 65.544297 282.46628 65.544297 177.690982c0-57.848523 46.029336-104.776322 102.690824-104.776322L339.383082 72.91466c56.697303 0 102.682637 46.926776 102.682637 104.776322l410.718269 0c56.661488 0 102.647845 46.957475 102.647845 104.775298l0 560.713468C955.431833 901.035434 909.445476 947.955046 852.783988 947.955046L852.783988 947.955046zM901.146463 268.157389c0-19.278065-15.353686-34.95-34.232662-34.95L154.106332 233.207389c-18.879999 0-34.232662 15.670911-34.232662 34.95l0 589.376275c0 19.263739 15.352663 34.942837 34.232662 34.942837l712.807469 0c18.878976 0 34.232662-15.679098 34.232662-34.942837L901.146463 268.157389 901.146463 268.157389zM824.773028 573.5928 748.552066 573.5928l0 104.776322c0 19.262716-15.389502 34.948977-34.232662 34.948977l-68.458161 0c-18.87079 0-34.224476-15.686261-34.224476-34.948977l0-104.776322-62.708204 0c-20.204158 0-26.677593-3.664459-7.40669-23.334451l103.659895-105.853863c34.768875-35.522028 34.298154-35.340903 69.175499 0l117.970832 105.853863C851.235726 569.928341 846.81709 573.5928 824.773028 573.5928L824.773028 573.5928zM220.94153 503.265058l0-57.384965 254.241448 0 0 57.384965L220.94153 503.265058 220.94153 503.265058zM220.94153 603.689259l0-57.384965 254.241448 0 0 57.384965L220.94153 603.689259 220.94153 603.689259zM220.94153 704.106296l0-57.384965 254.241448 0 0 57.384965L220.94153 704.106296 220.94153 704.106296z" /></svg>